<?xml version="1.0" encoding="UTF-8" standalone="no"?>
<!-- Created with Inkscape (http://www.inkscape.org/) -->

<svg
   xmlns:dc="http://purl.org/dc/elements/1.1/"
   xmlns:cc="http://creativecommons.org/ns#"
   xmlns:rdf="http://www.w3.org/1999/02/22-rdf-syntax-ns#"
   xmlns:svg="http://www.w3.org/2000/svg"
   xmlns="http://www.w3.org/2000/svg"
   xmlns:sodipodi="http://sodipodi.sourceforge.net/DTD/sodipodi-0.dtd"
   xmlns:inkscape="http://www.inkscape.org/namespaces/inkscape"
   width="58.738605mm"
   height="68.299545mm"
   viewBox="0 0 208.12892 242.00626"
   id="svg2"
   version="1.1"
   inkscape:version="0.91 r13725"
   sodipodi:docname="difas.svg"
   inkscape:export-filename="C:\Users\alex\Desktop\difas.png"
   inkscape:export-xdpi="90"
   inkscape:export-ydpi="90">
  <defs
     id="defs4" />
  <sodipodi:namedview
     id="base"
     pagecolor="#ffffff"
     bordercolor="#666666"
     borderopacity="1.0"
     inkscape:pageopacity="0.0"
     inkscape:pageshadow="2"
     inkscape:zoom="1"
     inkscape:cx="-114.13687"
     inkscape:cy="-16.981306"
     inkscape:document-units="px"
     inkscape:current-layer="layer1"
     showgrid="false"
     fit-margin-top="0"
     fit-margin-left="0"
     fit-margin-right="0"
     fit-margin-bottom="0"
     inkscape:window-width="2560"
     inkscape:window-height="1387"
     inkscape:window-x="-8"
     inkscape:window-y="-8"
     inkscape:window-maximized="1" />
  <g
     inkscape:label="Layer 1"
     inkscape:groupmode="layer"
     id="layer1"
     transform="translate(-332.53367,-307.83828)">
    <g
       id="g3358"
       transform="matrix(0.5,0,0,0.5,232.22764,222.63499)">
      <path
         style="fill:#a1cefe"
         d="m 396.61541,645.61412 c -10.20676,-11.80609 -11.30341,-13.56028 -9.99997,-15.99578 1.2094,-2.25978 3.50647,-3.34926 5.47167,-2.59514 0.75505,0.28974 4.65918,4.3863 8.67584,9.10348 l 7.30302,8.57667 4.07416,-4.38696 c 2.24079,-2.41282 5.4845,-6.02976 7.20825,-8.03764 4.40398,-5.1299 6.53879,-6.11276 9.2113,-4.24086 1.18504,0.83003 2.15461,2.29867 2.15461,3.26363 0,0.96497 -4.1026,6.56445 -9.1169,12.4433 -8.87459,10.40473 -9.22674,10.68841 -13.25,10.67384 -3.94827,-0.0143 -4.47293,-0.40804 -11.73198,-8.80454 z M 367.8917,611.68363 c -2.3919,-2.04771 -28.67416,-32.6756 -30.92729,-36.04096 -2.11949,-3.16574 -0.32132,-7.20904 3.20605,-7.20904 2.00646,0 5.75579,3.7933 19.02144,19.24452 9.08731,10.58448 16.52239,20.00234 16.52239,20.92857 0,2.00591 -2.60695,4.82691 -4.46064,4.82691 -0.72479,0 -2.23766,-0.7875 -3.36195,-1.75 z m 74.32405,-0.24839 c -1.31411,-1.45207 -1.56152,-2.53177 -0.90499,-3.94946 1.9184,-4.14253 31.89941,-38.1385 34.12748,-38.69771 2.8554,-0.71666 5.27605,1.17058 5.27605,4.11342 0,2.92825 -32.37185,40.53214 -34.89268,40.53214 -0.98854,0 -2.61118,-0.89928 -3.60586,-1.99839 z M 317.54298,553.18363 c -4.10791,-3.30521 -31.82869,-37.01551 -31.82869,-38.70578 0,-2.74842 3.80829,-5.21719 6.13067,-3.97429 1.43975,0.77053 26.47881,29.20583 32.76635,37.2107 3.2777,4.17295 -2.81767,8.88945 -7.06833,5.46937 z m 174.83798,0.58333 c -0.36667,-0.36666 -0.66561,-1.82916 -0.66431,-3.25 0.002,-1.89025 4.28615,-7.5819 15.9694,-21.2146 8.78187,-10.24719 16.6884,-18.90808 17.57008,-19.24641 0.88167,-0.33833 2.49673,-0.13686 3.58901,0.44771 4.2131,2.25478 2.08283,5.98222 -14.50117,25.37333 -13.35521,15.6158 -16.30028,18.55664 -18.58334,18.55664 -1.49215,0 -3.01301,-0.3 -3.37967,-0.66667 z M 355.70703,535.92488 c -1.5123,-1.8222 0.10775,-16.73191 2.63992,-24.29574 3.66831,-10.95763 12.70791,-24.74256 19.97229,-30.45672 l 2.47803,-1.94923 6.92466,4.64595 c 3.80857,2.55526 7.21908,5.12231 7.57892,5.70454 0.35984,0.58223 -1.88709,3.62675 -4.99318,6.76559 -3.10609,3.13883 -5.33527,6.01914 -4.95374,6.40067 1.04986,1.04986 46.15469,0.83549 46.80854,-0.22247 1.08978,-1.76329 -9.83451,-9.97968 -20.84268,-15.67623 -16.57978,-8.57975 -24.14782,-13.87721 -34.1055,-23.87309 -10.12331,-10.16214 -15.29054,-18.24111 -19.20977,-30.03452 -2.30056,-6.92264 -2.65324,-9.61604 -2.61891,-20 0.0333,-10.07847 0.47117,-13.43128 2.73438,-20.93836 4.24286,-14.07357 15.54523,-34.56164 19.06615,-34.56164 1.68284,0 14.24497,6.73278 15.07849,8.08145 0.30652,0.49596 -0.81691,2.8991 -2.49652,5.34032 -1.6796,2.44122 -3.05382,4.695 -3.05382,5.00841 0,0.3134 9.08828,0.56982 20.19617,0.56982 l 20.19616,0 -3.4238,-3.53246 c -4.96968,-5.12742 -16.07281,-12.52065 -26.96853,-17.95752 -27.18031,-13.56274 -37.69564,-27.87587 -41.15405,-56.01758 -1.49243,-12.14417 -1.23939,-12.49244 9.07649,-12.49244 4.22266,0 8.13933,0.46177 8.70371,1.02615 1.08141,1.08141 61.04844,0.66664 77.55046,-0.53639 10.91077,-0.79542 11.25614,-0.38852 9.76486,11.50468 -1.19849,9.55815 -2.97101,15.28545 -7.21824,23.32332 -3.07138,5.8126 -15.00218,19.68224 -16.93084,19.68224 -1.3779,0 -15.79239,-9.02809 -15.79239,-9.8911 0,-0.37624 2.25,-2.90025 5,-5.6089 2.75,-2.70865 5,-5.27923 5,-5.71241 0,-0.43317 -10.8,-0.78759 -24,-0.78759 -17.98932,0 -24,0.30029 -24,1.19904 0,2.75909 10.44267,10.7466 21.66579,16.57197 19.25343,9.99351 30.31466,18.21728 40.65895,30.22899 5.62742,6.53453 12.00303,18.96429 14.36205,28 2.35955,9.0377 2.10615,24.1602 -0.5781,34.5 -3.48915,13.44033 -17.65158,39.5 -21.46673,39.5 -1.8997,0 -14.92111,-7.28081 -15.34361,-8.57925 -0.19315,-0.59359 1.0107,-2.79297 2.67523,-4.88751 1.66453,-2.09454 3.02642,-4.19637 3.02642,-4.67074 0,-0.47438 -7.875,-0.8625 -17.5,-0.8625 -9.99044,0 -17.5,0.39494 -17.5,0.92036 0,1.7606 13.56314,11.12947 23.5,16.23284 19.42938,9.97855 29.49282,18.09886 35.74964,28.8468 5.97255,10.25963 11.60606,36.05909 8.65121,39.61946 -1.67241,2.01514 -16.2098,1.91813 -17.90085,-0.11946 -1.0609,-1.27831 -6.15985,-1.5 -34.5,-1.5 -28.34015,0 -33.4391,0.22169 -34.5,1.5 -1.77056,2.13339 -16.23528,2.12636 -18.00726,-0.009 z m 84.52906,-16.24125 c -0.38542,-2.0625 -1.1656,-4.3125 -1.73373,-5 -0.78363,-0.94828 -8.13625,-1.25 -30.46154,-1.25 l -29.42858,0 -1.44898,3.46788 c -2.90715,6.95779 -4.93788,6.53212 31.16232,6.53212 l 32.61129,0 -0.70078,-3.75 z m -4.04748,-83.20034 c 3.2667,-6.31711 4.52444,-6.04966 -28.44957,-6.04966 l -29.97525,0 0.92517,2.43338 c 2.65907,6.99388 0.72402,6.56662 29.7402,6.56662 l 26.23377,0 1.52568,-2.95034 z m 5.02568,-23.04966 0,-5.5 -33.25,-0.26348 -33.25,-0.26348 0,6.02696 0,6.02696 33.25,-0.26348 33.25,-0.26348 0,-5.5 z m -2.5,-18.54966 c 0,-0.85231 -0.68656,-2.87731 -1.52568,-4.5 l -1.52568,-2.95034 -27.44864,0 -27.44864,0 -1.52568,2.95034 c -3.26964,6.32278 -4.57773,6.04966 28.97432,6.04966 26.87884,0 30.5,-0.18399 30.5,-1.54966 z m 0.55103,-88.91822 c 2.90677,-6.95689 4.92593,-6.53212 -31.05103,-6.53212 l -32.5,0 0,3.06574 c 0,1.68616 0.46583,3.93616 1.03518,5 0.98816,1.84639 2.3987,1.93426 31.05103,1.93426 l 30.01584,0 1.44898,-3.46788 z M 262.48271,489.18363 c -18.40965,-20.81771 -26.76842,-31.20977 -26.76842,-33.2799 0,-2.93659 2.42095,-4.83621 5.23701,-4.10925 2.22979,0.57561 32.58928,35.15575 33.93804,38.65619 0.86543,2.24605 -1.72155,5.98296 -4.14186,5.98296 -1.04455,0 -4.65139,-3.16399 -8.26477,-7.25 z m 280.98158,6.1699 c -3.75963,-2.18978 -1.99727,-5.52253 10.90175,-20.61588 16.31491,-19.09034 20.3805,-23.30402 22.48503,-23.30402 2.05444,0 4.86322,2.59857 4.86322,4.49926 0,1.2764 -30.98428,38.15546 -33.38409,39.73543 -1.49892,0.98685 -2.7726,0.90445 -4.86591,-0.31479 z M 209.34022,427.35252 c -8.19145,-9.57333 -8.62593,-10.31878 -8.62593,-14.79953 0,-4.47744 0.44281,-5.23937 8.67039,-14.91889 8.69062,-10.22427 11.26557,-11.86451 14.12961,-9.00047 2.42418,2.42418 1.03411,5.5145 -6.3,14.00576 -4.125,4.77583 -7.5,9.19582 -7.5,9.82221 0,0.62639 3.375,5.08509 7.5,9.90823 7.37719,8.62574 8.67722,11.48658 6.3,13.8638 -2.88789,2.88789 -5.50934,1.24535 -14.17407,-8.88111 z m 383.57407,8.88111 c -2.29101,-2.29101 -1.1601,-4.71727 6.2856,-13.48514 4.11707,-4.84817 7.49207,-9.44361 7.5,-10.21209 0.008,-0.76848 -3.3606,-5.34344 -7.4856,-10.16657 -7.40024,-8.65269 -8.6527,-11.3835 -6.3,-13.7362 2.94369,-2.94369 5.57216,-1.271 14.7166,9.36523 12.30947,14.31759 12.31006,14.63776 0.0534,28.91564 -9.11655,10.61986 -11.78537,12.30376 -14.77,9.31913 z m -356,-64 c -0.66,-0.66 -1.2,-2.12296 -1.2,-3.25103 0,-2.6318 31.04007,-39.10953 34.10817,-40.0833 2.87022,-0.91097 6.15726,2.64807 5.09158,5.51292 -0.38486,1.03462 -7.8414,10.23769 -16.57007,20.45127 -16.01215,18.73609 -18.24989,20.54993 -21.42968,17.37014 z m 336.62869,-0.05 c -0.85447,-0.6875 -8.36547,-9.24312 -16.69113,-19.01249 -16.09514,-18.88611 -17.56812,-21.67295 -12.64162,-23.91761 2.0773,-0.94649 2.85744,-0.8171 4.6513,0.77144 3.26187,2.88852 30.40709,34.70739 31.74974,37.21617 2.4203,4.52236 -2.93572,8.26755 -7.06829,4.94249 z m -286.1737,-58.57874 c -0.91025,-1.00581 -1.65499,-2.56307 -1.65499,-3.46059 0,-0.89751 7.3125,-10.19903 16.25,-20.67003 13.21933,-15.4875 16.72558,-19.03841 18.8,-19.03941 2.91037,-0.001 4.95,1.65269 4.95,4.01435 0,1.77228 -29.545,36.85189 -33.18493,39.40139 -2.8488,1.99538 -3.14467,1.9813 -5.16008,-0.24571 z m 235.41592,-0.92126 c -1.62835,-1.5125 -9.29705,-10.175 -17.04155,-19.25 -12.09312,-14.17071 -14.04198,-16.92351 -13.80514,-19.5 0.23419,-2.54759 0.74116,-3.04541 3.36177,-3.30113 2.88096,-0.28112 4.14331,0.93505 19,18.3049 16.29872,19.05581 18.37523,22.58898 14.80867,25.19692 -2.45479,1.79498 -2.95235,1.68084 -6.32375,-1.45069 z M 337.28572,254.8622 c -3.11754,-3.11754 -3.60925,-2.35692 17.24665,-26.67857 10.80178,-12.59677 14.93024,-16.75 16.65011,-16.75 2.81858,0 4.79395,2.22134 4.35857,4.90131 -0.50564,3.11251 -32.62361,40.09869 -34.8208,40.09869 -1.02471,0 -2.57025,-0.70714 -3.43453,-1.57143 z m 135.65623,-0.17857 c -3.9621,-3.47743 -32.22766,-37.30679 -32.22766,-38.57136 0,-2.55856 2.58179,-4.87287 5.04644,-4.52361 3.16407,0.44837 34.95356,37.08842 34.95356,40.2869 0,4.42322 -4.20225,5.94145 -7.77234,2.80807 z m -86.22766,-59.25 c -1.44487,-2.69976 -0.38225,-4.49626 9.30959,-15.73913 7.77752,-9.0222 8.09469,-9.26087 12.3068,-9.26087 4.25174,0 4.47348,0.17467 13.35357,10.51913 8.89412,10.36079 10.20054,12.91037 7.83004,15.28087 -2.85255,2.85255 -5.66444,1.2767 -13.01511,-7.29401 -4.00669,-4.6717 -7.73489,-8.47485 -8.28489,-8.45144 -0.55,0.0234 -2.9146,2.38321 -5.25467,5.244 -7.53747,9.21478 -10.24928,11.70145 -12.76083,11.70145 -1.39068,0 -2.86791,-0.84789 -3.4845,-2 z"
         id="path3372"
         inkscape:connector-curvature="0" />
      <path
         style="fill:#6eb4fe"
         d="m 395.98538,644.34 c -7.04365,-8.10571 -8.77109,-10.71527 -8.77109,-13.25 0,-2.82114 0.3101,-3.15637 2.9198,-3.15637 2.40902,0 4.15838,1.42681 10,8.15618 3.89411,4.4859 7.5302,8.1957 8.0802,8.244 0.55,0.0483 4.2782,-3.73447 8.28489,-8.40617 7.76013,-9.04813 11.00572,-10.62229 13.251,-6.42695 1.36052,2.54216 0.72573,3.59082 -9.09781,15.02941 -8.46282,9.85416 -8.48102,9.86837 -12.66699,9.88822 -2.85297,0.0135 -4.25014,-1.1599 -12,-10.07832 z m -33.48756,-39.15637 c -12.066,-13.44388 -24.41214,-28.09461 -25.62404,-30.40714 -1.6377,-3.12505 1.64557,-7.19401 4.68041,-5.80043 2.57368,1.18182 34.1601,38.01416 34.1601,39.83346 0,1.53227 -3.16582,4.62411 -4.73475,4.62411 -0.5925,0 -4.40927,-3.7125 -8.48172,-8.25 z m 80.96647,7.1699 c -3.87886,-2.25923 -2.02641,-5.48028 13.57864,-23.61066 8.43076,-9.79508 16.05916,-18.40892 16.95202,-19.14186 3.78706,-3.10879 8.22893,1.92525 5.4103,6.13158 -2.21491,3.30539 -28.51619,33.93734 -30.86837,35.95104 -2.34827,2.01035 -2.69302,2.05588 -5.07259,0.6699 z M 302.23668,535.18911 c -9.08731,-10.58448 -16.52239,-19.94448 -16.52239,-20.8 0,-2.21805 2.03322,-3.95548 4.62888,-3.95548 3.21573,0 34.36539,36.38308 34.36876,40.14301 0.002,2.54504 -1.5478,3.85699 -4.55704,3.85699 -0.7677,0 -8.8309,-8.66003 -17.91821,-19.24452 z m 190.42802,17.68477 c -0.90401,-1.08927 -1.01635,-2.2881 -0.37244,-3.97444 0.50712,-1.32809 7.86644,-10.5262 16.35406,-20.44026 15.50147,-18.10666 17.76323,-19.93029 20.86797,-16.82555 0.66,0.66 1.2,1.98334 1.2,2.94076 0,1.49436 -29.49976,37.03706 -32.44721,39.09393 -1.74048,1.21458 -4.22775,0.86188 -5.60238,-0.79444 z M 357.38096,535.76696 c -1.33644,-1.33643 -0.61761,-12.20522 1.30416,-19.71928 1.08396,-4.23824 3.31086,-10.51366 4.94867,-13.94538 3.51885,-7.37309 13.82986,-20.05295 16.6219,-20.44062 1.8768,-0.26059 13.4586,7.17337 13.4586,8.63862 0,0.38968 -2.25,2.92468 -5,5.63333 -8.7036,8.57273 -8.87532,8.5 20.06955,8.5 l 25.06955,0 -0.31955,-2.21255 c -0.46272,-3.20387 -10.31007,-10.70886 -21.17302,-16.13667 -24.28577,-12.13468 -40.37829,-26.40311 -48.66721,-43.15078 -5.26786,-10.64364 -7.05755,-18.06255 -7.1164,-29.5 -0.0758,-14.73773 4.10265,-29.07066 12.90017,-44.24977 1.83285,-3.16238 4.3571,-6.941 5.60945,-8.39694 l 2.27699,-2.64717 6.67524,3.73301 c 3.67137,2.05315 6.67523,4.12429 6.67523,4.60253 0,0.47824 -1.125,2.5273 -2.5,4.55348 -2.89852,4.27121 -3.1254,5.95089 -0.91821,6.79787 2.06214,0.79132 36.77428,0.79132 38.83642,0 2.83547,-1.08807 1.68612,-3.23328 -4.48302,-8.36728 -7.94017,-6.60788 -14.10561,-10.49618 -27.53699,-17.3665 -24.44399,-12.50341 -36.36808,-30.23854 -36.74973,-54.65923 l -0.14847,-9.5 6.76523,-0.29604 c 4.87145,-0.21317 7.38311,0.13674 8.97251,1.25 3.30562,2.31535 66.66124,2.31356 70.1952,-0.002 1.69295,-1.10926 4.30473,-1.46355 9.21482,-1.25 l 6.85224,0.29804 -0.0945,8.02759 c -0.1534,13.03771 -5.22363,25.28222 -15.53024,37.50525 -6.43829,7.63542 -6.77906,7.70057 -14.33052,2.73951 -3.57674,-2.34979 -6.51253,-4.54556 -6.52397,-4.87949 -0.0114,-0.33393 2.27016,-2.89811 5.07023,-5.69819 2.80007,-2.80007 4.79852,-5.56436 4.44098,-6.14285 -0.7939,-1.28457 -50.14974,-1.47939 -50.93978,-0.20107 -0.84802,1.37213 3.9274,7.12357 9.21101,11.0936 2.69033,2.02147 10.24769,6.45628 16.79413,9.85513 28.07951,14.57861 45.23954,33.3463 50.89268,55.66062 3.30807,13.05777 1.08253,32.78054 -5.39889,47.84507 -2.86834,6.66679 -9.75785,18.29023 -12.97577,21.89171 l -2.6831,3.0029 -6.71615,-3.69166 c -3.69384,-2.03041 -6.71611,-4.08721 -6.71611,-4.57065 0,-0.48345 1.45254,-2.93973 3.22786,-5.45839 2.7062,-3.83933 2.98902,-4.73043 1.75,-5.51393 -1.86456,-1.17905 -34.99887,-1.23794 -36.84974,-0.0655 -0.75454,0.47797 -1.20454,1.34902 -1,1.93567 0.94301,2.70473 15.1822,12.50148 27.80102,19.12746 14.62884,7.68143 21.45941,12.63467 27.54765,19.97642 7.86241,9.48119 12.81511,23.6581 12.94232,37.04687 l 0.0809,8.51393 -7.05886,0.28995 c -6.0545,0.2487 -7.32153,-3e-4 -8.90498,-1.75 -1.78755,-1.97521 -2.89946,-2.03995 -35.03616,-2.03995 -31.92003,0 -33.25928,0.0765 -35,2 -1.46578,1.61967 -3.07997,2 -8.48832,2 -3.67309,0 -6.97835,-0.3 -7.34501,-0.66667 z m 84.08628,-15.83278 c -0.88604,-7.86093 0.72002,-7.50055 -33.42642,-7.50055 l -30.42858,0 -1.44898,3.46788 c -0.79693,1.90734 -1.44897,4.60734 -1.44897,6 l 0,2.53212 33.63005,0 33.63005,0 -0.50715,-4.49945 z m -6.77427,-79.48914 c 2.13293,-1.14151 5.55682,-9.33593 4.56881,-10.93456 -0.45178,-0.73101 -10.45196,-1.07685 -31.13789,-1.07685 -33.81274,0 -33.00955,-0.17389 -29.85937,6.46461 3.08402,6.49909 3.25199,6.53539 30.23802,6.53539 14.12912,0 25.11829,-0.4148 26.19043,-0.98859 z m 7.52132,-27.01141 0,-6.5 -34.20223,-0.26307 -34.20224,-0.26307 -0.65906,3.51307 c -0.36248,1.93219 -0.36248,5.09395 0,7.02614 l 0.65906,3.51307 34.20224,-0.26307 34.20223,-0.26307 0,-6.5 z m -1.95251,-16.07685 c 1.21757,-1.97006 -2.59224,-9.98966 -5.2204,-10.98889 -3.31869,-1.26176 -51.93751,-1.21312 -54.30577,0.0543 -2.13293,1.14151 -5.55682,9.33593 -4.56881,10.93456 0.9291,1.50333 63.16588,1.50333 64.09498,0 z m 0.004,-90.39103 c 0.79647,-1.90734 1.44851,-4.61332 1.44851,-6.0133 l 0,-2.54542 -33.75,0.2633 -33.75,0.2633 0.31713,3.94118 c 0.64795,8.05232 -1.52412,7.55882 33.26908,7.55882 l 31.01584,0 1.44898,-3.46788 z M 268.45237,495.18363 c -0.9043,-0.6875 -8.62944,-9.35 -17.16698,-19.25 -16.25506,-18.84912 -17.75007,-21.55007 -13.10071,-23.66846 3.22376,-1.46885 2.64238,-2.00552 21.11812,19.49419 15.76927,18.35026 17.54377,21.46274 13.47723,23.63909 -2.41097,1.29031 -2.34349,1.29366 -4.32766,-0.21482 z m 274.75824,-0.75406 c -1.43917,-1.59027 -1.59594,-2.4678 -0.75925,-4.25 1.76215,-3.75347 31.31442,-37.62751 33.40602,-38.29136 2.49753,-0.79268 4.85691,1.15569 4.85691,4.01083 0,3.62637 -32.25739,40.53459 -35.4268,40.53459 -0.14477,0 -1.07937,-0.90183 -2.07688,-2.00406 z M 218.09376,436.66832 c -0.61629,-0.40408 -4.7766,-5.00969 -9.24512,-10.23469 -11.8456,-13.85095 -11.57535,-15.61513 5.14356,-33.57706 5.16602,-5.5501 5.59928,-5.79993 8.09021,-4.66498 1.53885,0.70115 2.63188,2.0128 2.63188,3.15829 0,1.07753 -3.62446,6.31964 -8.05435,11.64914 -8.01222,9.63932 -8.04447,9.7011 -6.16521,11.81231 8.54606,9.60083 14.21956,16.96144 14.21956,18.44798 0,3.35135 -3.75753,5.28616 -6.62053,3.40901 z m 374.65571,-1.16895 c -0.56935,-1.06384 -1.03518,-2.32898 -1.03518,-2.81143 0,-0.48244 3.6,-5.09688 8,-10.25431 4.4,-5.15743 7.9978,-9.62979 7.99512,-9.93857 -0.003,-0.30879 -3.60269,-4.75982 -8,-9.89118 -4.39732,-5.13136 -7.99512,-9.93672 -7.99512,-10.67857 0,-1.68978 2.73242,-4.49168 4.3803,-4.49168 1.96207,0 3.92123,1.87617 12.53084,12 10.77294,12.66763 10.78915,13.46204 0.52189,25.5737 -4.16183,4.90947 -8.48668,9.7138 -9.61078,10.6763 -2.68367,2.29787 -5.49959,2.22142 -6.78707,-0.18426 z M 236.6647,371.87388 c -0.90401,-1.08927 -1.01635,-2.2881 -0.37244,-3.97444 0.50712,-1.32809 7.88442,-10.54726 16.39401,-20.48706 14.32119,-16.72815 15.6972,-18.05028 18.5,-17.77555 2.4315,0.23833 3.08802,0.81438 3.3326,2.9241 0.24858,2.14424 -2.59156,6.00532 -15.44721,21 -8.66348,10.10498 -16.22555,18.70331 -16.80458,19.10739 -1.74048,1.21458 -4.22775,0.86188 -5.60238,-0.79444 z m 321.57198,-17.68477 c -9.08731,-10.58448 -16.52239,-20.00896 -16.52239,-20.94329 0,-2.11754 3.74317,-4.84798 5.64541,-4.11802 2.60683,1.00034 33.34979,37.73809 33.35223,39.85583 0.003,2.52127 -1.80675,4.45 -4.17525,4.45 -1.06954,0 -8.35898,-7.66568 -18.3,-19.24452 z M 286.68971,312.90402 c -1.98613,-2.39315 -0.52154,-4.55412 16.50306,-24.34996 13.82241,-16.07238 16.00129,-18.20092 18.353,-17.92899 2.15353,0.24901 2.72177,0.88752 2.94445,3.30856 0.23864,2.59455 -1.8996,5.53407 -15.82112,21.75 -16.56089,19.29027 -18.80339,21.04723 -21.97939,17.22039 z m 221.95661,-16.49594 c -8.48762,-9.91406 -15.84694,-19.11217 -16.35406,-20.44026 -0.64391,-1.68634 -0.53157,-2.88517 0.37244,-3.97444 3.14362,-3.78783 4.76138,-2.40279 25.39784,21.74427 6.95846,8.14221 12.65175,15.58971 12.65175,16.55 0,0.96029 -0.54,2.28598 -1.2,2.94598 -3.10474,3.10474 -5.3665,1.28111 -20.86797,-16.82555 z M 337.73697,254.45631 c -1.25455,-1.25455 -1.73311,-2.62528 -1.30923,-3.75 0.68927,-1.82888 29.39403,-35.79631 32.13172,-38.02268 0.8454,-0.6875 2.09394,-1.25 2.77453,-1.25 1.67689,0 4.3803,2.81366 4.3803,4.55894 0,1.34902 -28.04958,35.02407 -32.22766,38.69106 -2.54013,2.22941 -3.32392,2.19842 -5.74966,-0.22732 z m 137.1613,1.29303 c -2.76444,-1.10574 -33.18398,-37.63625 -33.18398,-39.8503 0,-2.85514 2.35938,-4.80351 4.85691,-4.01083 2.0916,0.66385 31.64387,34.53789 33.40602,38.29136 0.83669,1.7822 0.67992,2.65973 -0.75925,4.25 -1.89527,2.09424 -2.17205,2.17881 -4.3197,1.31977 z m -86.98398,-59.51571 c -2.44183,-2.44183 -0.99656,-5.52646 6.93435,-14.8 4.46852,-5.225 8.62883,-9.83061 9.24512,-10.23469 2.32865,-1.5268 7.52792,-0.74756 9.90617,1.48469 3.72989,3.50089 14.28922,16.00391 15.56286,18.42756 1.37237,2.6115 0.61992,5.03899 -1.8,5.80705 -2.93122,0.93033 -4.56076,-0.27699 -11.54572,-8.55415 -3.68081,-4.36175 -7.21223,-7.92776 -7.84758,-7.92447 -0.63536,0.003 -4.4334,3.8283 -8.44009,8.5 -7.10114,8.27975 -9.54548,9.76364 -12.01511,7.29401 z"
         id="path3370"
         inkscape:connector-curvature="0" />
      <path
         style="fill:#4fa4fe"
         d="m 395.98538,644.34 c -7.04365,-8.10571 -8.77109,-10.71527 -8.77109,-13.25 0,-2.82114 0.3101,-3.15637 2.9198,-3.15637 2.40902,0 4.15838,1.42681 10,8.15618 3.89411,4.4859 7.5302,8.1957 8.0802,8.244 0.55,0.0483 4.2782,-3.73447 8.28489,-8.40617 7.76013,-9.04813 11.00572,-10.62229 13.251,-6.42695 1.36052,2.54216 0.72573,3.59082 -9.09781,15.02941 -8.46282,9.85416 -8.48102,9.86837 -12.66699,9.88822 -2.85297,0.0135 -4.25014,-1.1599 -12,-10.07832 z m -33.48756,-39.15637 c -12.066,-13.44388 -24.41214,-28.09461 -25.62404,-30.40714 -1.6377,-3.12505 1.64557,-7.19401 4.68041,-5.80043 2.57368,1.18182 34.1601,38.01416 34.1601,39.83346 0,1.53227 -3.16582,4.62411 -4.73475,4.62411 -0.5925,0 -4.40927,-3.7125 -8.48172,-8.25 z m 80.96647,7.1699 c -3.87886,-2.25923 -2.02641,-5.48028 13.57864,-23.61066 8.43076,-9.79508 16.05916,-18.40892 16.95202,-19.14186 3.78706,-3.10879 8.22893,1.92525 5.4103,6.13158 -2.21491,3.30539 -28.51619,33.93734 -30.86837,35.95104 -2.34827,2.01035 -2.69302,2.05588 -5.07259,0.6699 z M 302.23668,535.18911 c -9.08731,-10.58448 -16.52239,-19.94448 -16.52239,-20.8 0,-2.21805 2.03322,-3.95548 4.62888,-3.95548 3.21573,0 34.36539,36.38308 34.36876,40.14301 0.002,2.54504 -1.5478,3.85699 -4.55704,3.85699 -0.7677,0 -8.8309,-8.66003 -17.91821,-19.24452 z m 190.42802,17.68477 c -0.90401,-1.08927 -1.01635,-2.2881 -0.37244,-3.97444 0.50712,-1.32809 7.86644,-10.5262 16.35406,-20.44026 15.50147,-18.10666 17.76323,-19.93029 20.86797,-16.82555 0.66,0.66 1.2,1.98334 1.2,2.94076 0,1.49436 -29.49976,37.03706 -32.44721,39.09393 -1.74048,1.21458 -4.22775,0.86188 -5.60238,-0.79444 z M 357.35825,534.66656 c -0.26074,-0.42189 -0.0509,-4.54935 0.46628,-9.17214 1.03549,-9.25538 4.27758,-19.6341 8.25153,-26.41514 3.82459,-6.52616 12.57983,-16.64565 14.40159,-16.64565 1.66239,0 12.23664,6.87326 12.23664,7.95381 0,0.34176 -2.26663,2.85392 -5.03695,5.58258 -3.29699,3.24742 -4.93782,5.6525 -4.75,6.96241 0.27843,1.94178 1.04411,2.0012 25.78695,2.0012 25.2414,0 25.50308,-0.0216 25.80328,-2.12584 0.45634,-3.19869 -8.53906,-10.52654 -20.30328,-16.53953 -16.08472,-8.22129 -26.30206,-15.36439 -36.10107,-25.23882 -7.56924,-7.62751 -9.89067,-10.76374 -13.79239,-18.63347 -9.33117,-18.82083 -9.60215,-36.81092 -0.88816,-58.96234 2.66802,-6.78225 8.77286,-17.9152 12.02892,-21.93626 l 1.89504,-2.34027 6.16697,3.38826 c 3.39183,1.86355 6.1723,3.70579 6.17882,4.09386 0.007,0.38808 -1.11313,2.36337 -2.48813,4.38955 -1.375,2.02617 -2.5,4.52116 -2.5,5.54441 0,1.75741 1.21524,1.86045 21.94098,1.86045 15.77148,0 22.14591,-0.33157 22.66977,-1.1792 0.90315,-1.46133 -7.95207,-9.86159 -16.08967,-15.26302 -3.23518,-2.14739 -10.6384,-6.35032 -16.45161,-9.33983 -5.81321,-2.98952 -12.68567,-6.98423 -15.27213,-8.87714 -14.55303,-10.65066 -22.912,-27.50987 -23.96787,-48.34081 l -0.32947,-6.5 6.76523,-0.29604 c 4.87145,-0.21317 7.38311,0.13674 8.97251,1.25 3.21582,2.25246 67.35217,2.32345 70.32113,0.0778 1.24908,-0.94475 4.34764,-1.47953 8.69113,-1.5 l 6.75,-0.0318 -0.0148,5.75 c -0.0317,12.34014 -5.35901,26.12808 -14.31059,37.03828 -7.31427,8.91464 -7.62198,9.00108 -14.7677,4.14851 l -6.12127,-4.15687 5.24462,-5.31058 c 8.40682,-8.51254 8.51873,-8.46934 -21.93986,-8.46934 -16.54634,0 -26.20076,0.36954 -26.60167,1.01824 -1.13959,1.84389 3.71351,8.13478 9.64294,12.49978 3.20524,2.35956 10.67434,6.77362 16.59802,9.80904 25.91233,13.27801 42.39206,29.84112 49.42287,49.67294 1.99556,5.62887 2.30727,8.44329 2.32591,21 0.0209,14.10664 -0.0757,14.77557 -3.56299,24.65798 -3.64411,10.32686 -10.18249,22.84172 -14.86233,28.44742 l -2.58509,3.09653 -6.21739,-3.35097 c -3.41956,-1.84303 -6.22487,-3.6753 -6.23403,-4.07172 -0.009,-0.39642 1.38798,-2.71352 3.10474,-5.1491 1.71676,-2.43559 2.8152,-4.92374 2.44098,-5.52924 -0.7336,-1.18699 -39.69533,-1.6346 -40.86051,-0.46942 -2.41424,2.41424 12.07611,13.41275 29.95676,22.73787 13.85573,7.22605 20.05735,11.7076 25.93294,18.74023 7.29374,8.73004 12.19046,22.2184 13.12017,36.14042 l 0.58432,8.75 -6.92578,0 c -5.68829,0 -7.23176,-0.35736 -8.63823,-2 -1.64923,-1.92616 -2.94994,-2 -35.23203,-2 -32.28209,0 -33.5828,0.0738 -35.23203,2 -1.39705,1.63163 -2.94994,2 -8.43119,2 -3.69531,0 -6.93208,-0.34518 -7.19282,-0.76707 z m 84.89992,-10.30393 c 1.03755,-1.67879 -0.49806,-9.74032 -2.17479,-11.41705 -1.28289,-1.28289 -6.11327,-1.51195 -31.88381,-1.51195 -30.22318,0 -30.37947,0.0109 -31.9237,2.21554 -0.8535,1.21855 -1.82847,3.69016 -2.16658,5.49247 -1.23752,6.59656 -2.88403,6.29199 34.0146,6.29199 22.71553,0 33.68508,-0.34418 34.13428,-1.071 z m -5.67971,-84.26533 c 0.60998,-0.73499 1.79251,-3.27345 2.62784,-5.64104 2.53621,-7.18838 3.25685,-7.02263 -30.53267,-7.02263 -16.38767,0 -30.50757,0.27314 -31.37755,0.60699 -2.18963,0.84024 -1.98791,2.65806 0.93506,8.42625 l 2.51684,4.96676 27.36071,0 c 21.61136,0 27.59376,-0.28081 28.46977,-1.33633 z m 6.06337,-20.07636 c 0.70512,-0.84962 1.05286,-3.9386 0.87244,-7.75 l -0.29998,-6.33731 -34.43665,-0.26335 c -21.52193,-0.16458 -34.80419,0.10419 -35.41667,0.71667 -1.13237,1.13237 -1.33392,12.12569 -0.25433,13.8725 0.53241,0.86145 9.73274,1.17418 34.54422,1.17418 27.91203,0 34.02331,-0.24673 34.99097,-1.41269 z m -1.65179,-22.66203 c 0.72198,-1.14505 0.32283,-2.91858 -1.46288,-6.5 l -2.45577,-4.92528 -29.01127,-0.26484 -29.01128,-0.26484 -1.2856,2.76484 c -2.42441,5.21396 -3.05912,8.54766 -1.89457,9.95086 0.89702,1.08083 7.23969,1.29041 32.62101,1.07785 27.39517,-0.22943 31.63707,-0.4694 32.50036,-1.83859 z m -0.62892,-88.50902 c 0.93111,-1.42106 1.72898,-4.45856 1.77305,-6.75 l 0.0801,-4.16626 -34.13802,-0.263 c -28.39695,-0.21876 -34.22772,-0.0292 -34.67137,1.12688 -0.67001,1.74602 1.05487,9.62451 2.4842,11.34675 0.83118,1.00151 7.95848,1.28937 31.92458,1.28937 l 30.8545,0 1.69294,-2.58374 z M 268.45237,495.18363 c -0.9043,-0.6875 -8.62944,-9.35 -17.16698,-19.25 -16.25506,-18.84912 -17.75007,-21.55007 -13.10071,-23.66846 3.22376,-1.46885 2.64238,-2.00552 21.11812,19.49419 15.76927,18.35026 17.54377,21.46274 13.47723,23.63909 -2.41097,1.29031 -2.34349,1.29366 -4.32766,-0.21482 z m 274.75824,-0.75406 c -1.43917,-1.59027 -1.59594,-2.4678 -0.75925,-4.25 1.76215,-3.75347 31.31442,-37.62751 33.40602,-38.29136 2.49753,-0.79268 4.85691,1.15569 4.85691,4.01083 0,3.62637 -32.25739,40.53459 -35.4268,40.53459 -0.14477,0 -1.07937,-0.90183 -2.07688,-2.00406 z M 218.09376,436.66832 c -0.61629,-0.40408 -4.7766,-5.00969 -9.24512,-10.23469 -11.8456,-13.85095 -11.57535,-15.61513 5.14356,-33.57706 5.16602,-5.5501 5.59928,-5.79993 8.09021,-4.66498 1.53885,0.70115 2.63188,2.0128 2.63188,3.15829 0,1.07753 -3.62446,6.31964 -8.05435,11.64914 -8.01222,9.63932 -8.04447,9.7011 -6.16521,11.81231 8.54606,9.60083 14.21956,16.96144 14.21956,18.44798 0,3.35135 -3.75753,5.28616 -6.62053,3.40901 z m 374.65571,-1.16895 c -0.56935,-1.06384 -1.03518,-2.32898 -1.03518,-2.81143 0,-0.48244 3.6,-5.09688 8,-10.25431 4.4,-5.15743 7.9978,-9.62979 7.99512,-9.93857 -0.003,-0.30879 -3.60269,-4.75982 -8,-9.89118 -4.39732,-5.13136 -7.99512,-9.93672 -7.99512,-10.67857 0,-1.68978 2.73242,-4.49168 4.3803,-4.49168 1.96207,0 3.92123,1.87617 12.53084,12 10.77294,12.66763 10.78915,13.46204 0.52189,25.5737 -4.16183,4.90947 -8.48668,9.7138 -9.61078,10.6763 -2.68367,2.29787 -5.49959,2.22142 -6.78707,-0.18426 z M 236.6647,371.87388 c -0.90401,-1.08927 -1.01635,-2.2881 -0.37244,-3.97444 0.50712,-1.32809 7.88442,-10.54726 16.39401,-20.48706 14.32119,-16.72815 15.6972,-18.05028 18.5,-17.77555 2.4315,0.23833 3.08802,0.81438 3.3326,2.9241 0.24858,2.14424 -2.59156,6.00532 -15.44721,21 -8.66348,10.10498 -16.22555,18.70331 -16.80458,19.10739 -1.74048,1.21458 -4.22775,0.86188 -5.60238,-0.79444 z m 321.57198,-17.68477 c -9.08731,-10.58448 -16.52239,-20.00896 -16.52239,-20.94329 0,-2.11754 3.74317,-4.84798 5.64541,-4.11802 2.60683,1.00034 33.34979,37.73809 33.35223,39.85583 0.003,2.52127 -1.80675,4.45 -4.17525,4.45 -1.06954,0 -8.35898,-7.66568 -18.3,-19.24452 z M 286.68971,312.90402 c -1.98613,-2.39315 -0.52154,-4.55412 16.50306,-24.34996 13.82241,-16.07238 16.00129,-18.20092 18.353,-17.92899 2.15353,0.24901 2.72177,0.88752 2.94445,3.30856 0.23864,2.59455 -1.8996,5.53407 -15.82112,21.75 -16.56089,19.29027 -18.80339,21.04723 -21.97939,17.22039 z m 221.95661,-16.49594 c -8.48762,-9.91406 -15.84694,-19.11217 -16.35406,-20.44026 -0.64391,-1.68634 -0.53157,-2.88517 0.37244,-3.97444 3.14362,-3.78783 4.76138,-2.40279 25.39784,21.74427 6.95846,8.14221 12.65175,15.58971 12.65175,16.55 0,0.96029 -0.54,2.28598 -1.2,2.94598 -3.10474,3.10474 -5.3665,1.28111 -20.86797,-16.82555 z M 337.73697,254.45631 c -1.25455,-1.25455 -1.73311,-2.62528 -1.30923,-3.75 0.68927,-1.82888 29.39403,-35.79631 32.13172,-38.02268 0.8454,-0.6875 2.09394,-1.25 2.77453,-1.25 1.67689,0 4.3803,2.81366 4.3803,4.55894 0,1.34902 -28.04958,35.02407 -32.22766,38.69106 -2.54013,2.22941 -3.32392,2.19842 -5.74966,-0.22732 z m 137.1613,1.29303 c -2.76444,-1.10574 -33.18398,-37.63625 -33.18398,-39.8503 0,-2.85514 2.35938,-4.80351 4.85691,-4.01083 2.0916,0.66385 31.64387,34.53789 33.40602,38.29136 0.83669,1.7822 0.67992,2.65973 -0.75925,4.25 -1.89527,2.09424 -2.17205,2.17881 -4.3197,1.31977 z m -86.98398,-59.51571 c -2.44183,-2.44183 -0.99656,-5.52646 6.93435,-14.8 4.46852,-5.225 8.62883,-9.83061 9.24512,-10.23469 2.32865,-1.5268 7.52792,-0.74756 9.90617,1.48469 3.72989,3.50089 14.28922,16.00391 15.56286,18.42756 1.37237,2.6115 0.61992,5.03899 -1.8,5.80705 -2.93122,0.93033 -4.56076,-0.27699 -11.54572,-8.55415 -3.68081,-4.36175 -7.21223,-7.92776 -7.84758,-7.92447 -0.63536,0.003 -4.4334,3.8283 -8.44009,8.5 -7.10114,8.27975 -9.54548,9.76364 -12.01511,7.29401 z"
         id="path3368"
         inkscape:connector-curvature="0" />
      <path
         style="fill:#a0a0a0"
         d="m 395.98538,644.34 c -7.04365,-8.10571 -8.77109,-10.71527 -8.77109,-13.25 0,-2.82114 0.3101,-3.15637 2.9198,-3.15637 2.40902,0 4.15838,1.42681 10,8.15618 3.89411,4.4859 7.5302,8.1957 8.0802,8.244 0.55,0.0483 4.2782,-3.73447 8.28489,-8.40617 7.76013,-9.04813 11.00572,-10.62229 13.251,-6.42695 1.36052,2.54216 0.72573,3.59082 -9.09781,15.02941 -8.46282,9.85416 -8.48102,9.86837 -12.66699,9.88822 -2.85297,0.0135 -4.25014,-1.1599 -12,-10.07832 z m -33.48756,-39.15637 c -12.066,-13.44388 -24.41214,-28.09461 -25.62404,-30.40714 -1.6377,-3.12505 1.64557,-7.19401 4.68041,-5.80043 2.57368,1.18182 34.1601,38.01416 34.1601,39.83346 0,1.53227 -3.16582,4.62411 -4.73475,4.62411 -0.5925,0 -4.40927,-3.7125 -8.48172,-8.25 z m 80.96647,7.1699 c -3.87886,-2.25923 -2.02641,-5.48028 13.57864,-23.61066 8.43076,-9.79508 16.05916,-18.40892 16.95202,-19.14186 3.78706,-3.10879 8.22893,1.92525 5.4103,6.13158 -2.21491,3.30539 -28.51619,33.93734 -30.86837,35.95104 -2.34827,2.01035 -2.69302,2.05588 -5.07259,0.6699 z M 302.23668,535.18911 c -9.08731,-10.58448 -16.52239,-19.94448 -16.52239,-20.8 0,-2.21805 2.03322,-3.95548 4.62888,-3.95548 3.21573,0 34.36539,36.38308 34.36876,40.14301 0.002,2.54504 -1.5478,3.85699 -4.55704,3.85699 -0.7677,0 -8.8309,-8.66003 -17.91821,-19.24452 z m 190.42802,17.68477 c -0.90401,-1.08927 -1.01635,-2.2881 -0.37244,-3.97444 0.50712,-1.32809 7.86644,-10.5262 16.35406,-20.44026 15.50147,-18.10666 17.76323,-19.93029 20.86797,-16.82555 0.66,0.66 1.2,1.98334 1.2,2.94076 0,1.49436 -29.49976,37.03706 -32.44721,39.09393 -1.74048,1.21458 -4.22775,0.86188 -5.60238,-0.79444 z M 358.18434,528.18363 c 1.66778,-15.64133 7.30866,-29.15662 16.15882,-38.71585 3.07261,-3.31878 6.01951,-6.03415 6.54867,-6.03415 0.75117,0 8.4357,4.77383 10.76387,6.68679 0.24277,0.19948 -1.89473,2.72821 -4.75,5.6194 -5.25899,5.32513 -6.55809,8.95539 -3.60962,10.08682 0.86998,0.33385 12.48397,0.60699 25.80887,0.60699 26.23128,0 29.0223,-0.49134 26.76373,-4.71152 -2.26693,-4.23579 -11.51478,-11.28661 -21.41607,-16.32822 -21.47471,-10.93463 -36.65178,-23.04426 -45.42935,-36.24761 -5.76968,-8.67883 -8.85957,-17.00061 -10.48401,-28.23585 -1.07705,-7.44921 -1.01847,-9.96171 0.4268,-18.30555 1.92546,-11.11613 6.06826,-22.46628 11.68716,-32.01968 6.64603,-11.29975 5.76724,-10.7644 12.36135,-7.53034 3.13485,1.53747 5.69973,3.13168 5.69973,3.54268 0,0.411 -1.125,2.40505 -2.5,4.43123 -1.375,2.02617 -2.5,4.74616 -2.5,6.04441 l 0,2.36045 23.03138,0 c 19.98072,0 23.11098,-0.20742 23.63229,-1.56591 1.41346,-3.68343 -12.5426,-14.79249 -30.8572,-24.56241 -7.31856,-3.90409 -15.43123,-8.65132 -18.02816,-10.5494 -13.44719,-9.82847 -21.19551,-25.17346 -23.26379,-46.07228 l -0.7175,-7.25 7.04247,0 c 3.87336,0 7.32059,0.45 7.66051,1 0.84496,1.36717 71.15504,1.36717 72,0 0.33992,-0.55 3.76187,-1 7.60433,-1 l 6.9863,0 -0.49554,3.25 c -0.27255,1.7875 -0.76477,5.66022 -1.09383,8.60605 -1.2386,11.08845 -8.35141,24.86532 -17.28636,33.48217 l -3.97992,3.83823 -5.6634,-3.76029 -5.66341,-3.76029 5.04592,-5.10938 c 5.20069,-5.26611 6.21509,-7.88386 3.46412,-8.9395 -0.86998,-0.33385 -12.96488,-0.60699 -26.87755,-0.60699 -28.80206,0 -29.45587,0.16505 -25.56875,6.45454 3.39566,5.49429 8.97908,9.6697 22.76572,17.0247 16.57897,8.84468 23.13555,13.32012 32.15495,21.9486 19.75448,18.89825 26.60529,41.00846 20.47233,66.07216 -3.00378,12.27562 -10.29511,27.72424 -17.15775,36.35326 l -1.87154,2.35325 -5.66781,-3.19871 c -3.11729,-1.7593 -5.66781,-3.3676 -5.66781,-3.57402 0,-0.20642 1.41171,-2.37812 3.13713,-4.82599 5.29518,-7.51233 5.05505,-7.60779 -19.13713,-7.60779 -27.03016,0 -27.51959,0.58057 -10.92572,12.96028 4.16585,3.1079 13.4936,8.70494 20.72834,12.43787 26.0916,13.46258 36.19658,28.09803 38.56267,55.85185 l 0.4902,5.75 -6.82075,0 c -5.14041,0 -6.96257,-0.36954 -7.39637,-1.5 -0.49671,-1.29442 -5.44951,-1.5 -36.13837,-1.5 -30.68886,0 -35.64166,0.20558 -36.13837,1.5 -0.4357,1.13541 -2.2749,1.5 -7.56681,1.5 l -6.99119,0 0.66642,-6.25 z m 85.20126,-3.33583 c 1.02129,-2.66143 -1.62624,-12.31968 -3.6781,-13.4178 -2.19813,-1.17641 -60.87311,-1.35982 -62.70442,-0.19601 -2.84654,1.80899 -5.53983,12.61526 -3.62212,14.53297 0.36666,0.36667 16.13079,0.66667 35.03138,0.66667 30.45052,0 34.43403,-0.18063 34.97326,-1.58583 z m -3.9279,-88.80057 c 1.30123,-3.23753 2.13041,-6.50003 1.84262,-7.25 -0.42703,-1.11284 -6.51154,-1.3636 -33.08603,-1.3636 -28.84905,0 -32.63239,0.18144 -33.17325,1.59089 -0.59403,1.548 1.3385,6.58838 4.28445,11.17463 l 1.45524,2.26551 28.15555,-0.26551 28.15554,-0.26552 2.36588,-5.8864 z m 4.22141,-15.54786 c 1.42482,-2.66231 1.30583,-13.39509 -0.16482,-14.86574 -1.71908,-1.71908 -68.88092,-1.71908 -70.6,0 -1.58053,1.58053 -1.58053,14.01947 0,15.6 0.88664,0.88664 10.14774,1.2 35.46482,1.2 32.85316,0 34.30746,-0.0797 35.3,-1.93426 z m -1.31861,-22.58616 c 0.32089,-0.83623 -0.70573,-4.09873 -2.28139,-7.25 l -2.86482,-5.72958 -29.49451,0 -29.49452,0 -2.32267,5.85373 c -1.27747,3.21955 -2.08156,6.48205 -1.78687,7.25 0.44385,1.15665 6.29566,1.39627 34.09857,1.39627 29.1114,0 33.64015,-0.20165 34.14621,-1.52042 z m -2.24406,-87.02458 c 1.84715,-1.84716 3.8405,-8.74027 3.40725,-11.78246 l -0.3094,-2.17254 -34.5,-0.26469 c -38.91232,-0.29855 -37.3821,-0.59774 -35.90818,7.02069 0.45159,2.3342 0.84068,4.54936 0.86463,4.92257 0.0239,0.37322 0.75069,1.38572 1.61498,2.25 2.34515,2.34516 62.48747,2.36967 64.83072,0.0264 z m -171.66407,184.295 c -0.9043,-0.6875 -8.62944,-9.35 -17.16698,-19.25 -16.25506,-18.84912 -17.75007,-21.55007 -13.10071,-23.66846 3.22376,-1.46885 2.64238,-2.00552 21.11812,19.49419 15.76927,18.35026 17.54377,21.46274 13.47723,23.63909 -2.41097,1.29031 -2.34349,1.29366 -4.32766,-0.21482 z m 274.75824,-0.75406 c -1.43917,-1.59027 -1.59594,-2.4678 -0.75925,-4.25 1.76215,-3.75347 31.31442,-37.62751 33.40602,-38.29136 2.49753,-0.79268 4.85691,1.15569 4.85691,4.01083 0,3.62637 -32.25739,40.53459 -35.4268,40.53459 -0.14477,0 -1.07937,-0.90183 -2.07688,-2.00406 z M 218.09376,436.66832 c -0.61629,-0.40408 -4.7766,-5.00969 -9.24512,-10.23469 -11.8456,-13.85095 -11.57535,-15.61513 5.14356,-33.57706 5.16602,-5.5501 5.59928,-5.79993 8.09021,-4.66498 1.53885,0.70115 2.63188,2.0128 2.63188,3.15829 0,1.07753 -3.62446,6.31964 -8.05435,11.64914 -8.01222,9.63932 -8.04447,9.7011 -6.16521,11.81231 8.54606,9.60083 14.21956,16.96144 14.21956,18.44798 0,3.35135 -3.75753,5.28616 -6.62053,3.40901 z m 374.65571,-1.16895 c -0.56935,-1.06384 -1.03518,-2.32898 -1.03518,-2.81143 0,-0.48244 3.6,-5.09688 8,-10.25431 4.4,-5.15743 7.9978,-9.62979 7.99512,-9.93857 -0.003,-0.30879 -3.60269,-4.75982 -8,-9.89118 -4.39732,-5.13136 -7.99512,-9.93672 -7.99512,-10.67857 0,-1.68978 2.73242,-4.49168 4.3803,-4.49168 1.96207,0 3.92123,1.87617 12.53084,12 10.77294,12.66763 10.78915,13.46204 0.52189,25.5737 -4.16183,4.90947 -8.48668,9.7138 -9.61078,10.6763 -2.68367,2.29787 -5.49959,2.22142 -6.78707,-0.18426 z M 236.6647,371.87388 c -0.90401,-1.08927 -1.01635,-2.2881 -0.37244,-3.97444 0.50712,-1.32809 7.88442,-10.54726 16.39401,-20.48706 14.32119,-16.72815 15.6972,-18.05028 18.5,-17.77555 2.4315,0.23833 3.08802,0.81438 3.3326,2.9241 0.24858,2.14424 -2.59156,6.00532 -15.44721,21 -8.66348,10.10498 -16.22555,18.70331 -16.80458,19.10739 -1.74048,1.21458 -4.22775,0.86188 -5.60238,-0.79444 z m 321.57198,-17.68477 c -9.08731,-10.58448 -16.52239,-20.00896 -16.52239,-20.94329 0,-2.11754 3.74317,-4.84798 5.64541,-4.11802 2.60683,1.00034 33.34979,37.73809 33.35223,39.85583 0.003,2.52127 -1.80675,4.45 -4.17525,4.45 -1.06954,0 -8.35898,-7.66568 -18.3,-19.24452 z M 286.68971,312.90402 c -1.98613,-2.39315 -0.52154,-4.55412 16.50306,-24.34996 13.82241,-16.07238 16.00129,-18.20092 18.353,-17.92899 2.15353,0.24901 2.72177,0.88752 2.94445,3.30856 0.23864,2.59455 -1.8996,5.53407 -15.82112,21.75 -16.56089,19.29027 -18.80339,21.04723 -21.97939,17.22039 z m 221.95661,-16.49594 c -8.48762,-9.91406 -15.84694,-19.11217 -16.35406,-20.44026 -0.64391,-1.68634 -0.53157,-2.88517 0.37244,-3.97444 3.14362,-3.78783 4.76138,-2.40279 25.39784,21.74427 6.95846,8.14221 12.65175,15.58971 12.65175,16.55 0,0.96029 -0.54,2.28598 -1.2,2.94598 -3.10474,3.10474 -5.3665,1.28111 -20.86797,-16.82555 z M 337.73697,254.45631 c -1.25455,-1.25455 -1.73311,-2.62528 -1.30923,-3.75 0.68927,-1.82888 29.39403,-35.79631 32.13172,-38.02268 0.8454,-0.6875 2.09394,-1.25 2.77453,-1.25 1.67689,0 4.3803,2.81366 4.3803,4.55894 0,1.34902 -28.04958,35.02407 -32.22766,38.69106 -2.54013,2.22941 -3.32392,2.19842 -5.74966,-0.22732 z m 137.1613,1.29303 c -2.76444,-1.10574 -33.18398,-37.63625 -33.18398,-39.8503 0,-2.85514 2.35938,-4.80351 4.85691,-4.01083 2.0916,0.66385 31.64387,34.53789 33.40602,38.29136 0.83669,1.7822 0.67992,2.65973 -0.75925,4.25 -1.89527,2.09424 -2.17205,2.17881 -4.3197,1.31977 z m -86.98398,-59.51571 c -2.44183,-2.44183 -0.99656,-5.52646 6.93435,-14.8 4.46852,-5.225 8.62883,-9.83061 9.24512,-10.23469 2.32865,-1.5268 7.52792,-0.74756 9.90617,1.48469 3.72989,3.50089 14.28922,16.00391 15.56286,18.42756 1.37237,2.6115 0.61992,5.03899 -1.8,5.80705 -2.93122,0.93033 -4.56076,-0.27699 -11.54572,-8.55415 -3.68081,-4.36175 -7.21223,-7.92776 -7.84758,-7.92447 -0.63536,0.003 -4.4334,3.8283 -8.44009,8.5 -7.10114,8.27975 -9.54548,9.76364 -12.01511,7.29401 z"
         id="path3366"
         inkscape:connector-curvature="0" />
      <path
         style="fill:#409dfe"
         d="m 396.28912,643.2928 c -8.97855,-10.49321 -10.40805,-14.02651 -5.93299,-14.66455 1.62747,-0.23204 3.89132,1.74922 9.42673,8.25 4.00668,4.70546 7.8529,8.55538 8.54715,8.55538 0.69425,0 4.51925,-3.825 8.5,-8.5 3.98075,-4.675 7.9682,-8.5 8.86101,-8.5 1.69711,0 4.02327,1.8391 4.02327,3.18087 0,0.42948 -4.06352,5.51448 -9.03004,11.3 -8.12214,9.46151 -9.36626,10.51913 -12.37407,10.51913 -3.00177,0 -4.23213,-1.03792 -12.02106,-10.14083 z m -26.29826,-31.58095 c -1.31425,-0.45889 -28.7946,-32.0789 -31.58627,-36.34446 -1.43062,-2.18595 -1.47945,-2.83985 -0.32952,-4.41248 0.77514,-1.06006 2.0056,-1.59466 2.88959,-1.25544 1.20264,0.46149 26.36598,28.98456 32.51688,36.85843 2.10282,2.69186 -0.31556,6.26256 -3.49068,5.15395 z m 73.97343,0.0595 c -3.27928,-1.32322 -0.59042,-5.60185 14.82349,-23.58772 8.83781,-10.3125 16.62175,-18.75 17.29763,-18.75 1.58914,0 3.62888,2.04936 3.62888,3.64598 0,1.98794 -32.43171,39.49751 -33.95821,39.27507 -0.29798,-0.0434 -1.10429,-0.30592 -1.79179,-0.58333 z M 303.6814,535.39821 c -8.50691,-9.9647 -15.80533,-18.71952 -16.2187,-19.45516 -1.16853,-2.0795 0.23924,-4.51002 2.60858,-4.50372 3.12798,0.008 33.90764,36.11137 33.46192,39.24922 -0.19279,1.35719 -1.12288,2.3602 -2.3518,2.53618 -1.55222,0.22227 -5.69002,-3.99274 -17.5,-17.82652 z m 189.37005,16.47165 c -0.97484,-2.54037 0.83881,-5.07614 16.40458,-22.93623 11.69281,-13.41628 15.33708,-17 17.28721,-17 5.53904,0 3.49315,3.56299 -13.08391,22.78607 -15.83917,18.3674 -19.09957,21.08076 -20.60788,17.15016 z M 358.18434,528.18363 c 1.66778,-15.64133 7.30866,-29.15662 16.15882,-38.71585 3.07261,-3.31878 6.01951,-6.03415 6.54867,-6.03415 0.75117,0 8.4357,4.77383 10.76387,6.68679 0.24277,0.19948 -1.89473,2.72821 -4.75,5.6194 -5.25899,5.32513 -6.55809,8.95539 -3.60962,10.08682 0.86998,0.33385 12.48397,0.60699 25.80887,0.60699 26.23128,0 29.0223,-0.49134 26.76373,-4.71152 -2.26693,-4.23579 -11.51478,-11.28661 -21.41607,-16.32822 -21.47471,-10.93463 -36.65178,-23.04426 -45.42935,-36.24761 -5.76968,-8.67883 -8.85957,-17.00061 -10.48401,-28.23585 -1.07705,-7.44921 -1.01847,-9.96171 0.4268,-18.30555 1.92546,-11.11613 6.06826,-22.46628 11.68716,-32.01968 6.64603,-11.29975 5.76724,-10.7644 12.36135,-7.53034 3.13485,1.53747 5.69973,3.13168 5.69973,3.54268 0,0.411 -1.125,2.40505 -2.5,4.43123 -1.375,2.02617 -2.5,4.74616 -2.5,6.04441 l 0,2.36045 23.03138,0 c 19.98072,0 23.11098,-0.20742 23.63229,-1.56591 1.41346,-3.68343 -12.5426,-14.79249 -30.8572,-24.56241 -7.31856,-3.90409 -15.43123,-8.65132 -18.02816,-10.5494 -13.44719,-9.82847 -21.19551,-25.17346 -23.26379,-46.07228 l -0.7175,-7.25 7.04247,0 c 3.87336,0 7.32059,0.45 7.66051,1 0.84496,1.36717 71.15504,1.36717 72,0 0.33992,-0.55 3.76187,-1 7.60433,-1 l 6.9863,0 -0.49554,3.25 c -0.27255,1.7875 -0.76477,5.66022 -1.09383,8.60605 -1.2386,11.08845 -8.35141,24.86532 -17.28636,33.48217 l -3.97992,3.83823 -5.6634,-3.76029 -5.66341,-3.76029 5.04592,-5.10938 c 5.20069,-5.26611 6.21509,-7.88386 3.46412,-8.9395 -0.86998,-0.33385 -12.96488,-0.60699 -26.87755,-0.60699 -28.80206,0 -29.45587,0.16505 -25.56875,6.45454 3.39566,5.49429 8.97908,9.6697 22.76572,17.0247 16.57897,8.84468 23.13555,13.32012 32.15495,21.9486 19.75448,18.89825 26.60529,41.00846 20.47233,66.07216 -3.00378,12.27562 -10.29511,27.72424 -17.15775,36.35326 l -1.87154,2.35325 -5.66781,-3.19871 c -3.11729,-1.7593 -5.66781,-3.3676 -5.66781,-3.57402 0,-0.20642 1.41171,-2.37812 3.13713,-4.82599 5.29518,-7.51233 5.05505,-7.60779 -19.13713,-7.60779 -27.03016,0 -27.51959,0.58057 -10.92572,12.96028 4.16585,3.1079 13.4936,8.70494 20.72834,12.43787 26.0916,13.46258 36.19658,28.09803 38.56267,55.85185 l 0.4902,5.75 -6.82075,0 c -5.14041,0 -6.96257,-0.36954 -7.39637,-1.5 -0.49671,-1.29442 -5.44951,-1.5 -36.13837,-1.5 -30.68886,0 -35.64166,0.20558 -36.13837,1.5 -0.4357,1.13541 -2.2749,1.5 -7.56681,1.5 l -6.99119,0 0.66642,-6.25 z m 85.20126,-3.33583 c 1.02129,-2.66143 -1.62624,-12.31968 -3.6781,-13.4178 -2.19813,-1.17641 -60.87311,-1.35982 -62.70442,-0.19601 -2.84654,1.80899 -5.53983,12.61526 -3.62212,14.53297 0.36666,0.36667 16.13079,0.66667 35.03138,0.66667 30.45052,0 34.43403,-0.18063 34.97326,-1.58583 z m -3.9279,-88.80057 c 1.30123,-3.23753 2.13041,-6.50003 1.84262,-7.25 -0.42703,-1.11284 -6.51154,-1.3636 -33.08603,-1.3636 -28.84905,0 -32.63239,0.18144 -33.17325,1.59089 -0.59403,1.548 1.3385,6.58838 4.28445,11.17463 l 1.45524,2.26551 28.15555,-0.26551 28.15554,-0.26552 2.36588,-5.8864 z m 4.22141,-15.54786 c 1.42482,-2.66231 1.30583,-13.39509 -0.16482,-14.86574 -1.71908,-1.71908 -68.88092,-1.71908 -70.6,0 -1.58053,1.58053 -1.58053,14.01947 0,15.6 0.88664,0.88664 10.14774,1.2 35.46482,1.2 32.85316,0 34.30746,-0.0797 35.3,-1.93426 z m -1.31861,-22.58616 c 0.32089,-0.83623 -0.70573,-4.09873 -2.28139,-7.25 l -2.86482,-5.72958 -29.49451,0 -29.49452,0 -2.32267,5.85373 c -1.27747,3.21955 -2.08156,6.48205 -1.78687,7.25 0.44385,1.15665 6.29566,1.39627 34.09857,1.39627 29.1114,0 33.64015,-0.20165 34.14621,-1.52042 z m -2.24406,-87.02458 c 1.84715,-1.84716 3.8405,-8.74027 3.40725,-11.78246 l -0.3094,-2.17254 -34.5,-0.26469 c -38.91232,-0.29855 -37.3821,-0.59774 -35.90818,7.02069 0.45159,2.3342 0.84068,4.54936 0.86463,4.92257 0.0239,0.37322 0.75069,1.38572 1.61498,2.25 2.34515,2.34516 62.48747,2.36967 64.83072,0.0264 z m -174.54816,179.795 c -8.2649,-8.58889 -28.85399,-33.25323 -28.85399,-34.56513 0,-1.60887 2.01673,-3.68487 3.57968,-3.68487 1.39374,0 32.76749,36.42008 33.2529,38.60148 0.33175,1.49091 -1.48123,4.39852 -2.74262,4.39852 -0.36583,0 -2.72201,-2.1375 -5.23597,-4.75 z m 278.58234,3.3271 c -1.55056,-1.1338 -1.66889,-1.74757 -0.7167,-3.71755 1.27478,-2.63738 29.83564,-35.9331 31.83371,-37.11114 2.00854,-1.18422 4.44952,0.25728 4.41726,2.60858 -0.0283,2.06151 -29.0845,37.00799 -32.23722,38.77234 -0.84938,0.47534 -2.20147,0.24888 -3.29705,-0.55223 z m -331.12237,-64.3271 c -10.83975,-12.41822 -11.31396,-13.14269 -11.31396,-17.285 0,-3.4246 1.00792,-5.06367 8.56193,-13.92327 4.70906,-5.52295 9.11906,-10.04173 9.8,-10.04173 1.58626,0 3.63807,2.04176 3.63807,3.62025 0,0.67114 -3.5978,5.41864 -7.99512,10.55 -4.39731,5.13136 -7.99731,9.58239 -8,9.89118 -0.003,0.30878 3.59512,4.78114 7.99512,9.93857 4.4,5.15743 8,9.87729 8,10.48857 0,1.46894 -2.09228,3.51143 -3.59702,3.51143 -0.65835,0 -3.84842,-3.0375 -7.08902,-6.75 z m 380.72579,5.29789 c -1.57274,-1.89503 -0.91493,-2.98996 8.32282,-13.85337 3.65059,-4.29302 6.63743,-8.19463 6.63743,-8.67025 0,-0.47562 -3.60484,-5.06316 -8.01075,-10.19452 -4.40592,-5.13136 -7.89342,-9.95652 -7.75,-10.72257 0.14341,-0.76605 1.02191,-1.87213 1.95221,-2.45796 2.12935,-1.34088 3.58371,-0.0807 13.42773,11.63476 9.99075,11.89011 9.96964,12.26693 -1.41228,25.21019 -4.83372,5.49679 -9.48659,10.12859 -10.33971,10.29289 -0.85312,0.16429 -2.12547,-0.39333 -2.82745,-1.23917 z m -356.06433,-64.0775 c -1.91188,-2.30368 -0.67508,-4.10561 15.76632,-22.97039 11.69281,-13.41628 15.33708,-17 17.28721,-17 5.4379,0 3.39312,3.55668 -13.07927,22.75 -8.85056,10.3125 -16.67982,18.75 -17.39836,18.75 -0.71854,0 -1.87769,-0.68833 -2.5759,-1.52961 z m 336.83996,0.30851 c -1.9075,-1.48214 -28.29735,-32.18293 -30.53336,-35.52118 -1.90463,-2.84349 -1.0138,-5.25939 1.9366,-5.25202 3.24872,0.008 34.06334,35.99396 33.60029,39.23901 -0.37529,2.62998 -2.68271,3.33749 -5.00353,1.53419 z M 287.31968,311.84769 c -0.85127,-2.21838 -0.86364,-2.20146 16.36172,-22.37864 11.80998,-13.83378 15.94778,-18.04879 17.5,-17.82652 1.22892,0.17598 2.15901,1.17899 2.3518,2.53618 0.23914,1.68356 -3.63758,6.87194 -15.5,20.7443 -15.78978,18.46516 -19.08818,21.16023 -20.71352,16.92468 z m 231.2152,-5.61235 c -26.10109,-29.53964 -28.94554,-33.78469 -23.18811,-34.60586 1.68184,-0.23988 5.54287,3.66959 18.2708,18.5 16.30456,18.99786 18.30045,22.41825 13.48289,23.10586 -1.55641,0.22214 -3.81514,-1.62375 -8.56558,-7 z M 338.33234,253.90883 c -1.2516,-1.2516 -1.37293,-2.0647 -0.54025,-3.62058 1.71995,-3.21375 30.90783,-36.91187 32.50104,-37.52325 1.66474,-0.63882 4.42116,1.32454 4.42116,3.14914 0,1.43806 -31.94652,38.72061 -33.63393,39.25181 -0.62366,0.19633 -1.86027,-0.36937 -2.74802,-1.25712 z m 135.48894,-0.23971 c -1.14331,-0.95452 -8.59301,-9.38549 -16.55489,-18.73549 -14.14304,-16.60881 -16.61179,-20.77239 -13.11284,-22.11507 0.7916,-0.30376 2.08826,-0.17714 2.88148,0.28139 2.48447,1.43616 32.67926,37.30787 32.67926,38.82328 0,2.62445 -3.57284,3.68295 -5.89301,1.74589 z m -85.44032,-57.90216 c -1.86264,-1.86263 0.10084,-5.46024 7.88838,-14.45361 7.51747,-8.68148 8.94254,-9.87786 11.75,-9.86441 4.01682,0.0192 3.90588,-0.0666 11.96212,9.25687 9.6408,11.1573 10.41723,12.472 8.49865,14.39058 -2.39955,2.39954 -4.69527,0.90782 -11.76582,-7.64524 -3.575,-4.32458 -7.03726,-8.09887 -7.69392,-8.38729 -0.65665,-0.28843 -3.99533,2.71427 -7.41927,6.67267 -9.08656,10.50493 -11.1671,12.08348 -13.22014,10.03043 z"
         id="path3364"
         inkscape:connector-curvature="0" />
      <path
         style="fill:#5e5e5e"
         d="m 396.28912,643.2928 c -8.97855,-10.49321 -10.40805,-14.02651 -5.93299,-14.66455 1.62747,-0.23204 3.89132,1.74922 9.42673,8.25 4.00668,4.70546 7.8529,8.55538 8.54715,8.55538 0.69425,0 4.51925,-3.825 8.5,-8.5 3.98075,-4.675 7.9682,-8.5 8.86101,-8.5 1.69711,0 4.02327,1.8391 4.02327,3.18087 0,0.42948 -4.06352,5.51448 -9.03004,11.3 -8.12214,9.46151 -9.36626,10.51913 -12.37407,10.51913 -3.00177,0 -4.23213,-1.03792 -12.02106,-10.14083 z m -26.29826,-31.58095 c -1.31425,-0.45889 -28.7946,-32.0789 -31.58627,-36.34446 -1.43062,-2.18595 -1.47945,-2.83985 -0.32952,-4.41248 0.77514,-1.06006 2.0056,-1.59466 2.88959,-1.25544 1.20264,0.46149 26.36598,28.98456 32.51688,36.85843 2.10282,2.69186 -0.31556,6.26256 -3.49068,5.15395 z m 73.97343,0.0595 c -3.27928,-1.32322 -0.59042,-5.60185 14.82349,-23.58772 8.83781,-10.3125 16.62175,-18.75 17.29763,-18.75 1.58914,0 3.62888,2.04936 3.62888,3.64598 0,1.98794 -32.43171,39.49751 -33.95821,39.27507 -0.29798,-0.0434 -1.10429,-0.30592 -1.79179,-0.58333 z M 303.6814,535.39821 c -8.50691,-9.9647 -15.80533,-18.71952 -16.2187,-19.45516 -1.16853,-2.0795 0.23924,-4.51002 2.60858,-4.50372 3.12798,0.008 33.90764,36.11137 33.46192,39.24922 -0.19279,1.35719 -1.12288,2.3602 -2.3518,2.53618 -1.55222,0.22227 -5.69002,-3.99274 -17.5,-17.82652 z m 189.37005,16.47165 c -0.97484,-2.54037 0.83881,-5.07614 16.40458,-22.93623 11.69281,-13.41628 15.33708,-17 17.28721,-17 5.53904,0 3.49315,3.56299 -13.08391,22.78607 -15.83917,18.3674 -19.09957,21.08076 -20.60788,17.15016 z M 265.56828,490.68363 c -8.2649,-8.58889 -28.85399,-33.25323 -28.85399,-34.56513 0,-1.60887 2.01673,-3.68487 3.57968,-3.68487 1.39374,0 32.76749,36.42008 33.2529,38.60148 0.33175,1.49091 -1.48123,4.39852 -2.74262,4.39852 -0.36583,0 -2.72201,-2.1375 -5.23597,-4.75 z m 278.58234,3.3271 c -1.55056,-1.1338 -1.66889,-1.74757 -0.7167,-3.71755 1.27478,-2.63738 29.83564,-35.9331 31.83371,-37.11114 2.00854,-1.18422 4.44952,0.25728 4.41726,2.60858 -0.0283,2.06151 -29.0845,37.00799 -32.23722,38.77234 -0.84938,0.47534 -2.20147,0.24888 -3.29705,-0.55223 z m -331.12237,-64.3271 c -10.83975,-12.41822 -11.31396,-13.14269 -11.31396,-17.285 0,-3.4246 1.00792,-5.06367 8.56193,-13.92327 4.70906,-5.52295 9.11906,-10.04173 9.8,-10.04173 1.58626,0 3.63807,2.04176 3.63807,3.62025 0,0.67114 -3.5978,5.41864 -7.99512,10.55 -4.39731,5.13136 -7.99731,9.58239 -8,9.89118 -0.003,0.30878 3.59512,4.78114 7.99512,9.93857 4.4,5.15743 8,9.87729 8,10.48857 0,1.46894 -2.09228,3.51143 -3.59702,3.51143 -0.65835,0 -3.84842,-3.0375 -7.08902,-6.75 z m 380.72579,5.29789 c -1.57274,-1.89503 -0.91493,-2.98996 8.32282,-13.85337 3.65059,-4.29302 6.63743,-8.19463 6.63743,-8.67025 0,-0.47562 -3.60484,-5.06316 -8.01075,-10.19452 -4.40592,-5.13136 -7.89342,-9.95652 -7.75,-10.72257 0.14341,-0.76605 1.02191,-1.87213 1.95221,-2.45796 2.12935,-1.34088 3.58371,-0.0807 13.42773,11.63476 9.99075,11.89011 9.96964,12.26693 -1.41228,25.21019 -4.83372,5.49679 -9.48659,10.12859 -10.33971,10.29289 -0.85312,0.16429 -2.12547,-0.39333 -2.82745,-1.23917 z m -356.06433,-64.0775 c -1.91188,-2.30368 -0.67508,-4.10561 15.76632,-22.97039 11.69281,-13.41628 15.33708,-17 17.28721,-17 5.4379,0 3.39312,3.55668 -13.07927,22.75 -8.85056,10.3125 -16.67982,18.75 -17.39836,18.75 -0.71854,0 -1.87769,-0.68833 -2.5759,-1.52961 z m 336.83996,0.30851 c -1.9075,-1.48214 -28.29735,-32.18293 -30.53336,-35.52118 -1.90463,-2.84349 -1.0138,-5.25939 1.9366,-5.25202 3.24872,0.008 34.06334,35.99396 33.60029,39.23901 -0.37529,2.62998 -2.68271,3.33749 -5.00353,1.53419 z M 287.31968,311.84769 c -0.85127,-2.21838 -0.86364,-2.20146 16.36172,-22.37864 11.80998,-13.83378 15.94778,-18.04879 17.5,-17.82652 1.22892,0.17598 2.15901,1.17899 2.3518,2.53618 0.23914,1.68356 -3.63758,6.87194 -15.5,20.7443 -15.78978,18.46516 -19.08818,21.16023 -20.71352,16.92468 z m 231.2152,-5.61235 c -26.10109,-29.53964 -28.94554,-33.78469 -23.18811,-34.60586 1.68184,-0.23988 5.54287,3.66959 18.2708,18.5 16.30456,18.99786 18.30045,22.41825 13.48289,23.10586 -1.55641,0.22214 -3.81514,-1.62375 -8.56558,-7 z M 338.33234,253.90883 c -1.2516,-1.2516 -1.37293,-2.0647 -0.54025,-3.62058 1.71995,-3.21375 30.90783,-36.91187 32.50104,-37.52325 1.66474,-0.63882 4.42116,1.32454 4.42116,3.14914 0,1.43806 -31.94652,38.72061 -33.63393,39.25181 -0.62366,0.19633 -1.86027,-0.36937 -2.74802,-1.25712 z m 135.48894,-0.23971 c -1.14331,-0.95452 -8.59301,-9.38549 -16.55489,-18.73549 -14.14304,-16.60881 -16.61179,-20.77239 -13.11284,-22.11507 0.7916,-0.30376 2.08826,-0.17714 2.88148,0.28139 2.48447,1.43616 32.67926,37.30787 32.67926,38.82328 0,2.62445 -3.57284,3.68295 -5.89301,1.74589 z m -85.44032,-57.90216 c -1.86264,-1.86263 0.10084,-5.46024 7.88838,-14.45361 7.51747,-8.68148 8.94254,-9.87786 11.75,-9.86441 4.01682,0.0192 3.90588,-0.0666 11.96212,9.25687 9.6408,11.1573 10.41723,12.472 8.49865,14.39058 -2.39955,2.39954 -4.69527,0.90782 -11.76582,-7.64524 -3.575,-4.32458 -7.03726,-8.09887 -7.69392,-8.38729 -0.65665,-0.28843 -3.99533,2.71427 -7.41927,6.67267 -9.08656,10.50493 -11.1671,12.08348 -13.22014,10.03043 z"
         id="path3362"
         inkscape:connector-curvature="0" />
      <path
         style="fill:#111111"
         d="m 397.21429,642.90449 c -8.24955,-9.78662 -10.11798,-13.47573 -6.81955,-13.46487 1.04141,0.003 4.95642,3.66347 9.15461,8.55841 4.79424,5.58989 7.93061,8.44558 9.05432,8.244 0.94559,-0.16962 5.00336,-4.04503 9.01727,-8.61202 4.58108,-5.2123 7.91142,-8.18548 8.94569,-7.9863 2.94395,0.56695 1.7848,2.7713 -6.76325,12.86155 -11.26979,13.30303 -11.70546,13.31073 -22.58909,0.39923 z m -28.23182,-33.2058 c -1.09483,-0.97078 -7.34877,-8.06506 -13.89764,-15.76506 -18.35532,-21.58172 -17.58553,-20.53602 -16.27768,-22.11189 0.63362,-0.76346 1.50614,-1.38811 1.93895,-1.38811 0.875,0 28.61097,31.99132 31.30581,36.10886 1.44867,2.21347 1.4963,2.78408 0.3143,3.76506 -1.07859,0.89514 -1.84261,0.75767 -3.38374,-0.60886 z m 75.40528,1.07507 c -0.3704,-0.3704 -0.67346,-1.31479 -0.67346,-2.09863 0,-1.47535 29.193,-36.12094 31.63661,-37.54562 1.61012,-0.93874 3.36566,-0.0954 3.35816,1.61314 -0.006,1.38892 -29.03592,35.58635 -31.78901,37.44778 -1.02236,0.69123 -2.16189,0.95373 -2.5323,0.58333 z M 316.06546,548.18363 c -9.09327,-9.50654 -28.43795,-32.98974 -28.07468,-34.08086 1.1847,-3.55839 4.38394,-0.82884 19.14272,16.33233 14.2662,16.58842 17.7803,21.99853 14.289,21.99853 -0.71049,0 -3.12115,-1.9125 -5.35704,-4.25 z m 178.0501,2.85331 c -0.69583,-1.81331 -0.90676,-1.535 16.98049,-22.40597 13.27837,-15.49329 17.65121,-19.08319 17.59825,-14.44734 -0.0234,2.04865 -30.40275,37.59593 -32.53864,38.07391 -0.79608,0.17815 -1.71413,-0.37112 -2.0401,-1.2206 z M 254.42199,476.60751 c -16.73881,-19.45955 -17.61108,-20.6705 -16.02903,-22.25255 0.68017,-0.68017 1.71172,-0.78942 2.59626,-0.27495 2.66838,1.55196 31.72507,36.13763 31.72507,37.76178 0,4.53347 -4.54269,0.75021 -18.2923,-15.23428 z m 289.2923,15.55271 c 0,-2.06406 31.93641,-38.91437 33.32466,-38.45217 0.64644,0.21522 1.31505,1.11147 1.4858,1.99166 0.4527,2.33352 -29.74,37.15152 -32.56477,37.55347 -1.41851,0.20185 -2.24569,-0.20074 -2.24569,-1.09296 z M 210.89316,425.84163 c -11.03212,-12.93822 -11.03567,-13.68228 -0.12646,-26.46943 7.64301,-8.9587 11.081,-11.29248 11.69465,-7.93857 0.15095,0.825 -3.33039,5.69839 -7.73631,10.82975 -4.40591,5.13136 -8.01075,9.71629 -8.01075,10.18873 0,0.47244 3.64745,5.16337 8.10544,10.42428 7.69269,9.07819 9.24553,12.55724 5.60482,12.55724 -0.74389,0 -5.03301,-4.3164 -9.53139,-9.592 z m 383.32113,8.592 c -0.83064,-1.34401 -0.2909,-2.14239 8.18198,-12.10277 4.02491,-4.73152 7.31802,-9.14153 7.31802,-9.80001 0,-0.65848 -3.62576,-5.48497 -8.05723,-10.72553 -4.43148,-5.24056 -7.88169,-10.05555 -7.66714,-10.69999 1.03854,-3.11935 3.97924,-1.07948 12.06239,8.36728 6.52992,7.6315 8.66198,10.83143 8.66198,13.0004 0,2.16363 -2.12334,5.36749 -8.56193,12.91889 -8.11756,9.52056 -10.51835,11.33889 -11.93807,9.04173 z M 238.0872,369.96303 c -0.6649,-1.7327 -0.8189,-1.53051 17.00885,-22.33206 13.11391,-15.3014 17.61824,-19.03964 17.61824,-14.62174 0,2.00546 -31.06368,38.41107 -32.78138,38.4187 -0.70477,0.003 -1.53533,-0.65607 -1.84571,-1.4649 z m 333.99551,-2.7689 c -8.81108,-9.22664 -28.42848,-33.0804 -28.07604,-34.13903 1.1678,-3.50779 4.42246,-0.7179 19.17741,16.43882 8.59726,9.99671 15.49612,18.87291 15.3308,19.7249 -0.55017,2.8353 -2.32441,2.27681 -6.43217,-2.02469 z m -283.8956,-55.80448 c -0.89081,-1.44135 0.42108,-3.16167 16.73502,-21.94512 14.00417,-16.12405 17.79216,-19.34812 17.79216,-15.14346 0,2.41314 -30.41717,38.13256 -32.4721,38.13256 -0.77543,0 -1.70021,-0.46979 -2.05508,-1.04398 z m 221.3962,-16.94737 c -8.45296,-9.89524 -15.36902,-18.77658 -15.36902,-19.7363 0,-4.70783 3.85162,-1.43488 18.53992,15.75446 15.44055,18.06969 17.95404,21.97319 14.14865,21.97319 -1.29228,0 -7.13723,-6.07167 -17.31955,-17.99135 z M 339.11959,253.04744 c -0.3406,-0.88759 -0.3913,-2.17631 -0.11266,-2.86381 1.06856,-2.63648 31.02837,-36.75 32.27528,-36.75 2.17911,0 2.69319,1.95255 1.13872,4.32498 -2.56787,3.91905 -28.66998,34.11957 -30.71599,35.53883 -1.69638,1.17674 -2.05102,1.14244 -2.58535,-0.25 z m 135.3391,0.0675 c -0.7975,-0.64973 -8.07566,-8.93642 -16.17369,-18.41488 -13.89327,-16.26156 -16.13633,-19.91298 -12.89537,-20.99201 1.31297,-0.43714 33.32466,36.33046 33.32466,38.27563 0,1.81115 -2.57943,2.49684 -4.2556,1.13127 z m -85.07773,-58.34799 c -1.51253,-1.51252 -0.28037,-3.60238 7.5122,-12.74133 11.18312,-13.11532 11.70099,-13.10614 23.22652,0.41139 8.07153,9.46658 9.71722,12.99661 6.05898,12.99661 -0.72692,0 -4.78544,-4.05 -9.01894,-9 -4.2335,-4.95 -7.97811,-8.99311 -8.32135,-8.98469 -1.25452,0.0308 -2.91568,1.64727 -10.00373,9.73469 -7.10269,8.10414 -8.11825,8.91877 -9.45368,7.58333 z"
         id="path3360"
         inkscape:connector-curvature="0" />
    </g>
  </g>
  <metadata
     id="metadata3395">
    <rdf:RDF>
      <cc:Work
         rdf:about="">
        <dc:title></dc:title>
      </cc:Work>
    </rdf:RDF>
  </metadata>
</svg>
